<svg xmlns="http://www.w3.org/2000/svg" xmlns:xlink="http://www.w3.org/1999/xlink" width="24" height="25" viewBox="0 0 24 25">
    <defs>
        <path id="prefix__a" d="M15.188 3H10.5V1.5C10.5.675 9.825 0 9 0H6.75c-.825 0-1.5.675-1.5 1.5V3H.562C.263 3 0 3.263 0 3.563v1.124c0 .3.263.563.563.563h14.624c.3 0 .563-.263.563-.563V3.563c0-.3-.262-.562-.563-.562zM6.75 1.875c0-.225.15-.375.375-.375h1.5c.225 0 .375.15.375.375V3H6.75V1.875zm6.938 4.875H2.062c-.3 0-.562.263-.562.563v8.812c0 1.05.825 1.875 1.875 1.875h9c1.05 0 1.875-.825 1.875-1.875V7.312c0-.3-.262-.562-.563-.562zM6.75 15c0 .225-.15.375-.375.375h-.75c-.225 0-.375-.15-.375-.375V9.75c0-.225.15-.375.375-.375h.75c.225 0 .375.15.375.375V15zm3.75 0c0 .225-.15.375-.375.375h-.75C9.15 15.375 9 15.225 9 15V9.75c0-.225.15-.375.375-.375h.75c.225 0 .375.15.375.375V15z"/>
    </defs>
    <g fill="none" fill-rule="evenodd" transform="translate(4 3)">
        <mask id="prefix__b" fill="#fff">
            <use xlink:href="#prefix__a"/>
        </mask>
        <use fill="#ADB3B7" xlink:href="#prefix__a"/>
        <g fill="#5C6770" stroke="#5C6770" mask="url(#prefix__b)">
            <path d="M0.5 0.5H23.5V23.5H0.5z" transform="translate(-4 -3)"/>
        </g>
    </g>
</svg>
