<svg xmlns="http://www.w3.org/2000/svg" xmlns:xlink="http://www.w3.org/1999/xlink" width="24" height="25" viewBox="0 0 24 25">
    <defs>
        <path id="prefix__a" d="M17.438 10.875h-1.125c-.3 0-.563.262-.563.563v3.75c0 .3-.262.562-.563.562H2.813c-.3 0-.563-.262-.563-.563v-3.75c0-.3-.262-.562-.563-.562H.563c-.3 0-.562.262-.562.563V16.5c0 .825.675 1.5 1.5 1.5h15c.825 0 1.5-.675 1.5-1.5v-5.063c0-.3-.262-.562-.563-.562zM8.624 13.35c.225.225.563.225.787 0l5.063-5.063c.225-.225.225-.562 0-.787l-.787-.787c-.226-.226-.563-.226-.788 0l-2.1 2.1c-.225.224-.638.074-.638-.263V.562c-.037-.3-.337-.562-.6-.562H8.438c-.3 0-.563.263-.563.563v7.95c0 .337-.412.487-.638.262l-2.1-2.1c-.224-.225-.562-.225-.787 0l-.787.825c-.226.225-.226.563 0 .787l5.062 5.063z"/>
    </defs>
    <g fill="none" fill-rule="evenodd" transform="translate(3 3)">
        <mask id="prefix__b" fill="#fff">
            <use xlink:href="#prefix__a"/>
        </mask>
        <use fill="#000" xlink:href="#prefix__a"/>
        <g fill="#5C6770" stroke="#5C6770" mask="url(#prefix__b)">
            <path d="M0.5 0.5H23.5V23.5H0.5z" transform="translate(-3 -3)"/>
        </g>
    </g>
</svg>
