<svg xmlns="http://www.w3.org/2000/svg" xmlns:xlink="http://www.w3.org/1999/xlink" width="24" height="25" viewBox="0 0 24 25">
    <defs>
        <path id="prefix__a" d="M9 13.9c-2.702 0-4.899-2.198-4.899-4.898 0-2.703 2.197-4.902 4.9-4.902 2.7 0 4.896 2.199 4.896 4.902 0 2.7-2.196 4.899-4.896 4.899zm8.931-5.989c-.018-.154-.138-.28-.295-.3l-2.112-.305c-.16-.609-.399-1.185-.715-1.72l1.28-1.709c.095-.125.093-.296-.004-.42-.44-.566-.959-1.084-1.539-1.542-.124-.098-.298-.1-.422-.005l-1.71 1.282c-.54-.32-1.117-.559-1.721-.715L10.39.363c-.023-.155-.146-.275-.3-.295-.728-.09-1.453-.09-2.18 0-.155.02-.278.14-.3.295l-.304 2.114c-.604.156-1.181.396-1.722.715L3.874 1.91c-.124-.095-.297-.093-.419.005-.582.458-1.1.976-1.542 1.541-.096.125-.097.296-.003.421l1.28 1.71c-.316.534-.557 1.11-.714 1.72L.362 7.61c-.155.02-.275.146-.296.3C.022 8.3 0 8.655 0 9.001c0 .346.022.701.066 1.088.021.156.14.28.296.302l2.114.303c.157.61.398 1.187.715 1.72l-1.28 1.71c-.095.125-.094.297.002.42.442.564.96 1.084 1.542 1.54.122.099.295.102.42.007l1.71-1.282c.54.318 1.118.558 1.721.717l.304 2.112c.022.156.147.277.304.295.42.045.763.067 1.087.067.32 0 .667-.022 1.084-.067.157-.018.283-.14.306-.295l.302-2.112c.605-.159 1.182-.399 1.722-.717l1.71 1.282c.124.095.298.092.422-.007.58-.456 1.099-.976 1.539-1.54.096-.123.098-.295.003-.42l-1.28-1.71c.317-.534.557-1.111.715-1.72l2.112-.303c.157-.022.277-.146.295-.302.047-.387.069-.742.069-1.088 0-.346-.022-.702-.069-1.09z"/>
    </defs>
    <g fill="none" fill-rule="evenodd" transform="translate(3 3)">
        <mask id="prefix__b" fill="#fff">
            <use xlink:href="#prefix__a"/>
        </mask>
        <g fill="#5C6770" stroke="#5C6770" mask="url(#prefix__b)">
            <path d="M0.5 0.5H23.5V23.5H0.5z" transform="translate(-3 -3)"/>
        </g>
    </g>
</svg>
