<svg xmlns="http://www.w3.org/2000/svg" xmlns:xlink="http://www.w3.org/1999/xlink" width="24" height="24" viewBox="0 0 24 24">
    <defs>
        <path id="prefix__a" d="M17.4 8.33c.03-.63-.42-.81-.6-.81h-6.54c-.57 0-.66.6-.66.66v7.02h7.8V8.33zm-4.5 5.04c0 .33-.27.6-.6.6h-.6c-.33 0-.6-.27-.6-.6v-.6c0-.33.27-.6.6-.6h.6c.33 0 .6.27.6.6v.6zm0-3.06c0 .33-.27.6-.6.6h-.6c-.33 0-.6-.27-.6-.6v-.6c0-.33.27-.6.6-.6h.6c.33 0 .6.27.6.6v.6zm3 3.06c0 .33-.27.6-.6.6h-.6c-.33 0-.6-.27-.6-.6v-.6c0-.33.27-.6.6-.6h.6c.33 0 .6.27.6.6v.6zm0-3.06c0 .33-.27.6-.6.6h-.6c-.33 0-.6-.27-.6-.6v-.6c0-.33.27-.6.6-.6h.6c.33 0 .6.27.6.6v.6zm-4.5-5.22V1.61c.03-.63-.42-.81-.6-.81H.66C.09.8 0 1.4 0 1.46V15.2h7.8V6.41s0-.72.66-.72h2.37s.57-.36.57-.6zm-8.1 7.98c0 .33-.27.6-.6.6h-.6c-.33 0-.6-.27-.6-.6v-.6c0-.33.27-.6.6-.6h.6c.33 0 .6.27.6.6v.6zm0-3.09c0 .33-.27.6-.6.6h-.6c-.33 0-.6-.27-.6-.6v-.6c0-.33.27-.6.6-.6h.6c.33 0 .6.27.6.6v.6zm0-3.06c0 .33-.27.6-.6.6h-.6c-.33 0-.6-.27-.6-.6v-.6c0-.33.27-.6.6-.6h.6c.33 0 .6.27.6.6v.6zm0-3.06c0 .33-.27.6-.6.6h-.6c-.33 0-.6-.27-.6-.6v-.6c0-.33.27-.6.6-.6h.6c.33 0 .6.27.6.6v.6zm3.3 9.21c0 .33-.27.6-.6.6h-.6c-.33 0-.6-.27-.6-.6v-.6c0-.33.27-.6.6-.6H6c.33 0 .6.27.6.6v.6zm0-3.09c0 .33-.27.6-.6.6h-.6c-.33 0-.6-.27-.6-.6v-.6c0-.33.27-.6.6-.6H6c.33 0 .6.27.6.6v.6zm0-3.06c0 .33-.27.6-.6.6h-.6c-.33 0-.6-.27-.6-.6v-.6c0-.33.27-.6.6-.6H6c.33 0 .6.27.6.6v.6zm0-3.06c0 .33-.27.6-.6.6h-.6c-.33 0-.6-.27-.6-.6v-.6c0-.33.27-.6.6-.6H6c.33 0 .6.27.6.6v.6zm3.3 0c0 .33-.27.6-.6.6h-.6c-.33 0-.6-.27-.6-.6v-.6c0-.33.27-.6.6-.6h.6c.33 0 .6.27.6.6v.6z"/>
    </defs>
    <g fill="none" fill-rule="evenodd" transform="translate(3 4)">
        <mask id="prefix__b" fill="#fff">
            <use xlink:href="#prefix__a"/>
        </mask>
        <g fill="#000" mask="url(#prefix__b)">
            <path d="M0 0H24V24H0z" transform="translate(-3 -4)"/>
        </g>
    </g>
</svg>