<?xml version="1.0" encoding="UTF-8"?>
<svg width="24px" height="24px" viewBox="0 0 24 24" version="1.1" xmlns="http://www.w3.org/2000/svg" xmlns:xlink="http://www.w3.org/1999/xlink">
    <title>3BEBC0B9-2344-4A55-8C82-0CD462C8D8F7</title>
    <defs>
        <path d="M1,0 C1.55228475,-1.01453063e-16 2,0.44771525 2,1 L2,11 C2,11.5522847 1.55228475,12 1,12 C0.44771525,12 6.76353751e-17,11.5522847 0,11 L0,1 C-6.76353751e-17,0.44771525 0.44771525,1.01453063e-16 1,0 Z M13,0.618033989 C13.5522847,0.618033989 14,1.06574924 14,1.61803399 L14,1.61803399 L14,10.381966 C14,10.5372111 13.9638549,10.6903242 13.8944272,10.8291796 C13.6474379,11.3231581 13.0467649,11.5233825 12.5527864,11.2763932 L12.5527864,11.2763932 L3.78885438,6.89442719 C3.59532698,6.79766349 3.43840449,6.640741 3.34164079,6.4472136 C3.09465154,5.9532351 3.29487588,5.35256206 3.78885438,5.10557281 L3.78885438,5.10557281 L12.5527864,0.723606798 C12.6916418,0.654179081 12.8447549,0.618033989 13,0.618033989 Z" id="path-1"></path>
    </defs>
    <g id="Master" stroke="none" stroke-width="1" fill="none" fill-rule="evenodd">
        <g id="Logs-|-Call-Logs-|-Expanded" transform="translate(-1316.000000, -342.000000)">
            <g id="Toolbar" transform="translate(0.000000, 334.000000)">
                <g id="Page-Controls" transform="translate(1321.000000, 14.000000)">
                    <g id="Icon/Skip/Beginning">
                        <mask id="mask-2" fill="white">
                            <use xlink:href="#path-1"></use>
                        </mask>
                        <path stroke="#979797" d="M0.646446609,0.646446609 C0.555964406,0.736928813 0.5,0.861928813 0.5,1 L0.5,11 C0.5,11.1380712 0.555964406,11.2630712 0.646446609,11.3535534 C0.736928813,11.4440356 0.861928813,11.5 1,11.5 C1.13807119,11.5 1.26307119,11.4440356 1.35355339,11.3535534 C1.44403559,11.2630712 1.5,11.1380712 1.5,11 L1.5,1 C1.5,0.861928813 1.44403559,0.736928813 1.35355339,0.646446609 C1.26307119,0.555964406 1.13807119,0.5 0.646446609,0.646446609 Z M12.6933216,1.2124268 L4.01246118,6.4472136 L13.1859095,10.8461302 C13.3178859,10.7933801 13.3864801,10.6445062 13.4999395,10.3022382 L13.3222948,1.29643377 C13.1730548,1.21585001 12.9637202,1.1908446 12.6933216,1.2124268 Z"></path>
                        <g id="z_colours/grey/dark" mask="url(#mask-2)" fill="#5C6770" stroke="#5C6770">
                            <g transform="translate(-5.000000, -6.000000)" id="Rectangle">
                                <rect x="0.5" y="0.5" width="23" height="23"></rect>
                            </g>
                        </g>
                    </g>
                </g>
            </g>
        </g>
    </g>
</svg>