<svg xmlns="http://www.w3.org/2000/svg" xmlns:xlink="http://www.w3.org/1999/xlink" width="24" height="24" viewBox="0 0 24 24">
    <defs>
        <path id="prefix__a" d="M16 0c1.105 0 2 .895 2 2v14c0 1.105-.895 2-2 2H2c-1.105 0-2-.895-2-2V2C0 .895.895 0 2 0h14zm-1 2H3c-.552 0-1 .448-1 1v12c0 .552.448 1 1 1h12c.552 0 1-.448 1-1V3c0-.552-.448-1-1-1z"/>
        <path id="prefix__c" d="M4 5c.552 0 1 .448 1 1v3h9c.552 0 1 .448 1 1s-.448 1-1 1H4c-.552 0-1-.448-1-1V6c0-.552.448-1 1-1z"/>
    </defs>
    <g fill="none" fill-rule="evenodd" transform="translate(3 3)">
        <mask id="prefix__b" fill="#fff">
            <use xlink:href="#prefix__a"/>
        </mask>
        <path stroke="#979797" d="M16 .5c.414 0 .79.168 1.06.44.272.27.44.646.44 1.06h0v14c0 .414-.168.79-.44 1.06-.27.272-.646.44-1.06.44h0H2c-.414 0-.79-.168-1.06-.44C.667 16.79.5 16.415.5 16h0V2c0-.414.168-.79.44-1.06C1.21.667 1.585.5 2 .5h0zm-1 1H3c-.397 0-.758.153-1.03.425-.251.25-.43.607-.47 1.05V15c0 .397.153.758.425 1.03.25.251.607.43 1.05.47H15c.397 0 .758-.153 1.03-.425.251-.25.43-.607.47-1.05V3c0-.414-.168-.79-.44-1.06-.27-.272-.646-.44-1.06-.44z"/>
        <g fill="#5C6770" stroke="#5C6770" mask="url(#prefix__b)">
            <path d="M0.5 0.5H23.5V23.5H0.5z" transform="translate(-3 -3)"/>
        </g>
        <mask id="prefix__d" fill="#fff">
            <use xlink:href="#prefix__c"/>
        </mask>
        <path stroke="#979797" d="M3.646 5.646c-.09.09-.146.216-.146.354v4c0 .138.056.263.146.354.09.09.216.146.354.146h10c.138 0 .263-.056.354-.146.09-.09.146-.216.146-.354 0-.138-.056-.263-.146-.354-.09-.09-.216-.146-.354-.146H4.5V6c0-.138-.056-.263-.146-.354-.09-.09-.216-.146-.708 0z"/>
        <g fill="#5C6770" stroke="#5C6770" mask="url(#prefix__d)">
            <path d="M0.5 0.5H23.5V23.5H0.5z" transform="translate(-3 -3)"/>
        </g>
    </g>
</svg>
