<?xml version="1.0" encoding="UTF-8"?>
<svg width="24px" height="24px" viewBox="0 0 24 24" version="1.1" xmlns="http://www.w3.org/2000/svg" xmlns:xlink="http://www.w3.org/1999/xlink">
    <title>481EC26D-AAC1-4BCE-96DD-0EF83E7283D7</title>
    <defs>
        <path d="M1.4472136,0.723606798 L10.2111456,5.10557281 C10.7051241,5.35256206 10.9053485,5.9532351 10.6583592,6.4472136 C10.5615955,6.640741 10.404673,6.79766349 10.2111456,6.89442719 L1.4472136,11.2763932 C0.953235098,11.5233825 0.352562058,11.3231581 0.105572809,10.8291796 C0.0361450918,10.6903242 9.07190461e-16,10.5372111 0,10.381966 L0,1.61803399 C-5.11724585e-16,1.06574924 0.44771525,0.618033989 1,0.618033989 C1.1552451,0.618033989 1.30835816,0.654179081 1.4472136,0.723606798 Z" id="path-1"></path>
    </defs>
    <g id="Master" stroke="none" stroke-width="1" fill="none" fill-rule="evenodd">
        <g id="Logs-|-Call-Logs-|-Expanded" transform="translate(-1342.000000, -342.000000)">
            <g id="Toolbar" transform="translate(0.000000, 334.000000)">
                <g id="Page-Controls" transform="translate(1321.000000, 14.000000)">
                    <g id="Icon/Playback" transform="translate(34.000000, 6.000000) scale(-1, 1) translate(-34.000000, -6.000000) translate(28.000000, 0.000000)">
                        <mask id="mask-2" fill="white">
                            <use xlink:href="#path-1"></use>
                        </mask>
                        <path stroke="#979797" d="M0.646446609,1.2644806 C0.555964406,1.3549628 0.5,1.4799628 0.5,1.61803399 L0.60397964,10.6873539 C0.665826723,10.7677373 0.749373841,10.8254702 0.841886117,10.8563077 C0.963280731,10.8967725 1.10011217,10.8909269 1.2236068,10.8291796 L9.98753882,6.4472136 C10.0843025,6.39883174 10.1627638,6.3203705 10.2111456,6.2236068 C10.2728929,6.10011217 10.2787385,5.96328073 10.2382737,5.84188612 C10.1978088,5.7204915 10.1110334,5.61453372 9.98753882,5.5527864 L0.646446609,1.2644806 Z"></path>
                        <g id="z_colours/grey/dark" mask="url(#mask-2)" fill="#5C6770" stroke="#5C6770">
                            <g transform="translate(-7.000000, -6.000000)" id="Rectangle">
                                <rect x="0.5" y="0.5" width="23" height="23"></rect>
                            </g>
                        </g>
                    </g>
                </g>
            </g>
        </g>
    </g>
</svg>