<svg xmlns="http://www.w3.org/2000/svg" xmlns:xlink="http://www.w3.org/1999/xlink" width="25" height="25" viewBox="0 0 25 25">
    <defs>
        <path id="prefix__a" d="M6.974 0c3.852 0 6.975 3.123 6.975 6.974 0 1.507-.478 2.902-1.29 4.042l5.115 5.114c.39.391.39 1.024 0 1.415l-.23.23c-.39.39-1.023.39-1.414 0l-5.114-5.116c-1.14.812-2.535 1.29-4.042 1.29C3.123 13.949 0 10.826 0 6.974 0 3.123 3.123 0 6.974 0zm0 2.325c-2.568 0-4.65 2.081-4.65 4.65 0 2.567 2.082 4.649 4.65 4.649 2.568 0 4.65-2.082 4.65-4.65 0-2.568-2.082-4.65-4.65-4.65z"/>
    </defs>
    <g fill="none" fill-rule="evenodd" transform="translate(3.06 3)">
        <mask id="prefix__b" fill="#fff">
            <use xlink:href="#prefix__a"/>
        </mask>
        <use fill="#D8D8D8" xlink:href="#prefix__a"/>
        <g fill="#5C6770" stroke="#5C6770" mask="url(#prefix__b)">
            <path d="M0.5 0.5H23.5V23.5H0.5z" transform="translate(-3 -3)"/>
        </g>
    </g>
</svg>
