<svg xmlns="http://www.w3.org/2000/svg" xmlns:xlink="http://www.w3.org/1999/xlink" width="24" height="24" viewBox="0 0 24 24">
    <defs>
        <path id="prefix__a" d="M6.974 3c3.852 0 6.975 3.123 6.975 6.974 0 1.507-.478 2.902-1.29 4.042l5.115 5.114c.39.391.39 1.024 0 1.415l-.23.23c-.39.39-1.023.39-1.414 0l-5.114-5.116c-1.14.812-2.535 1.29-4.042 1.29C3.123 16.949 0 13.826 0 9.974 0 6.123 3.123 3 6.974 3zm0 2.325c-2.568 0-4.65 2.081-4.65 4.65 0 2.567 2.082 4.649 4.65 4.649 2.568 0 4.65-2.082 4.65-4.65 0-2.568-2.082-4.65-4.65-4.65zM18 0c.552 0 1 .448 1 1v2.5h2.5c.552 0 1 .448 1 1s-.448 1-1 1H19V8c0 .552-.448 1-1 1s-1-.448-1-1V5.499l-2.5.001c-.552 0-1-.448-1-1s.448-1 1-1l2.5-.001V1c0-.552.448-1 1-1z"/>
    </defs>
    <g fill="none" fill-rule="evenodd" transform="translate(1 1)">
        <mask id="prefix__b" fill="#fff">
            <use xlink:href="#prefix__a"/>
        </mask>
        <use fill="#000" xlink:href="#prefix__a"/>
        <path fill="#5C6770" stroke="#5C6770" d="M-0.5 -0.5H22.5V22.5H-0.5z" mask="url(#prefix__b)"/>
    </g>
</svg>
